<?xml version="1.0" standalone="no"?>
<!DOCTYPE svg PUBLIC "-//W3C//DTD SVG 20010904//EN"
 "http://www.w3.org/TR/2001/REC-SVG-20010904/DTD/svg10.dtd">
<svg version="1.0" xmlns="http://www.w3.org/2000/svg"
 width="242.000000pt" height="242.000000pt" viewBox="0 0 242.000000 242.000000"
 preserveAspectRatio="xMidYMid meet">
<metadata>
Created by potrace 1.14, written by Peter Selinger 2001-2017
</metadata>
<g transform="translate(0.000000,242.000000) scale(0.100000,-0.100000)"
fill="#000000" stroke="none">
<path d="M1110 1952 c0 -5 7 -9 15 -9 8 0 15 4 15 9 0 4 -7 8 -15 8 -8 0 -15
-4 -15 -8z"/>
<path d="M1196 1935 c-15 -22 -20 -24 -33 -14 -21 18 -43 20 -43 4 0 -43 15
-77 37 -86 18 -7 22 -13 15 -22 -12 -16 13 -77 32 -77 8 0 12 -8 9 -23 -5 -25
3 -47 50 -132 18 -33 39 -79 46 -102 8 -23 18 -40 24 -36 6 3 7 1 3 -5 -8 -13
10 -52 23 -52 21 0 18 44 -4 79 -16 24 -22 44 -18 59 5 21 6 21 20 5 7 -10 5
1 -7 25 -11 23 -23 42 -26 42 -3 0 -2 -4 1 -10 3 -5 2 -10 -4 -10 -10 0 -23
30 -30 67 0 4 -7 -2 -15 -12 -13 -18 -13 -17 -11 10 2 16 1 34 -3 39 -5 9 -13
51 -15 83 0 7 -4 10 -8 7 -4 -2 -13 5 -19 16 -6 11 -14 18 -19 16 -4 -3 -5 9
-3 26 3 19 1 28 -5 25 -13 -8 -7 53 7 67 5 5 11 8 13 5 1 -2 15 -21 30 -41 15
-20 27 -45 27 -56 0 -10 9 -27 20 -37 11 -10 20 -23 20 -30 0 -13 85 -182 101
-201 5 -7 14 -40 20 -73 6 -34 13 -60 16 -57 6 6 6 59 -1 104 -6 41 10 33 20
-11 5 -25 8 -28 13 -14 9 25 1 98 -10 91 -5 -3 -9 2 -9 11 0 9 5 13 11 9 12
-7 2 37 -11 46 -4 3 -6 17 -6 31 1 19 -2 25 -13 21 -9 -3 -12 -1 -7 6 4 7 3
12 -1 12 -12 0 -34 38 -25 44 4 2 46 -34 92 -82 47 -47 80 -83 74 -79 -11 6
-28 -26 -25 -46 1 -4 -5 -10 -13 -13 -8 -3 -12 -12 -9 -20 3 -8 -4 -18 -18
-23 -13 -5 -18 -10 -11 -10 7 -1 23 4 34 10 15 8 23 8 32 -1 6 -6 6 -10 1 -8
-12 3 -65 -36 -65 -48 0 -4 5 -3 12 4 16 16 25 15 25 -3 0 -8 -3 -13 -6 -11
-3 2 -15 -6 -26 -16 -20 -20 -20 -20 4 -13 18 5 22 4 16 -6 -6 -9 -3 -11 11
-6 18 7 18 7 0 -8 -11 -8 -25 -15 -30 -15 -6 0 -4 5 4 11 10 7 11 9 2 7 -8 -2
-14 -8 -14 -13 0 -6 -4 -15 -9 -22 -8 -8 -2 -12 18 -15 l28 -3 -30 -17 -30
-17 32 4 c18 2 36 6 41 9 4 2 9 -5 9 -16 2 -27 12 -36 22 -20 4 7 16 10 27 7
12 -4 10 -1 -6 9 -14 8 -19 15 -12 16 7 0 11 4 8 9 -4 5 3 7 15 4 16 -4 17 -8
7 -14 -8 -6 4 -9 32 -9 58 0 92 9 83 23 -3 6 -1 7 5 3 7 -4 12 -14 12 -22 0
-10 5 -9 20 6 11 11 24 20 29 20 17 0 6 55 -14 67 -18 11 -16 12 15 7 l35 -5
-25 15 c-14 8 -21 15 -16 16 4 0 -2 9 -15 21 l-24 20 25 -7 c24 -6 24 -6 5 10
-19 15 -19 15 -1 16 15 0 16 3 6 15 -10 12 -10 15 1 15 11 0 11 3 -1 11 -13 9
-13 10 0 6 9 -2 17 -20 20 -43 5 -36 27 -60 27 -29 0 8 -5 11 -11 8 -6 -4 -5
0 1 8 10 12 10 18 0 29 -10 10 -9 11 1 5 11 -6 12 -3 3 12 -7 14 -7 23 1 31
16 16 -4 15 -21 0 -11 -11 -12 -10 -5 2 5 8 9 18 10 23 1 4 3 9 4 12 6 13 5
31 -2 42 -5 6 -5 14 2 18 16 10 12 25 -6 18 -14 -5 -15 -3 -4 18 12 22 12 23
-3 10 -13 -10 -16 -28 -14 -76 2 -66 -8 -91 -26 -64 -9 14 -12 14 -29 -3 -11
-11 -17 -26 -13 -35 3 -9 0 -20 -7 -25 -21 -13 -25 -9 -20 19 4 22 2 25 -12
20 -11 -4 -15 -3 -11 4 4 5 1 24 -5 40 -12 29 -37 35 -52 14 -5 -6 -8 -5 -8 3
0 8 9 16 19 19 15 4 17 8 8 17 -9 10 -16 10 -37 -1 -24 -12 -28 -9 -127 89
-88 88 -104 100 -118 88 -13 -11 -18 -10 -33 4 -10 9 -22 13 -27 9 -4 -5 -5
-3 -2 3 3 6 -4 22 -16 34 -12 13 -32 37 -43 52 l-21 28 -17 -25z m-36 -24 c0
-6 -4 -13 -10 -16 -5 -3 -10 1 -10 9 0 9 5 16 10 16 6 0 10 -4 10 -9z m200
-132 c0 -15 9 -38 20 -52 11 -14 20 -31 20 -38 0 -7 6 -20 14 -28 17 -20 31
-75 17 -66 -7 3 -8 0 -5 -9 3 -9 1 -16 -6 -16 -6 0 -10 10 -9 23 2 12 -5 34
-14 48 -10 15 -17 31 -16 35 2 16 -13 54 -22 54 -5 0 -9 10 -9 23 -1 25 -24
60 -33 50 -4 -3 -7 1 -7 9 0 14 4 14 25 5 17 -8 25 -20 25 -38z m50 15 c0 -2
-7 -4 -15 -4 -8 0 -15 4 -15 10 0 5 7 7 15 4 8 -4 15 -8 15 -10z m253 -263
c52 -54 57 -63 46 -82 -10 -19 -9 -21 7 -15 16 6 16 5 -2 -15 -11 -14 -13 -19
-4 -14 10 6 9 2 -3 -12 -18 -21 -18 -21 0 -26 16 -4 15 -6 -5 -12 -17 -6 -20
-10 -11 -16 8 -5 1 -7 -19 -7 -17 1 -29 5 -26 10 3 4 -2 8 -10 8 -8 0 -18 4
-21 10 -3 5 0 7 9 4 8 -3 23 -1 33 5 16 9 15 10 -8 11 -14 0 -33 6 -44 13 -16
13 -15 14 16 10 26 -3 30 -2 19 6 -8 6 -10 11 -5 12 6 0 -1 5 -15 9 l-25 8 25
2 c25 1 25 1 3 10 -13 5 -23 14 -23 21 0 6 7 9 15 6 8 -4 17 -2 20 3 4 6 -5
10 -18 10 -14 0 -28 7 -31 16 -3 8 -2 12 4 9 6 -4 17 0 25 8 12 13 12 17 -3
33 -9 11 -24 28 -32 38 -33 42 25 -2 83 -63z m-25 66 c-1 -2 3 -11 11 -20 17
-22 8 -22 -13 -1 -9 8 -13 20 -10 25 3 6 8 8 11 5 2 -2 3 -6 1 -9z m-58 -131
c0 -11 -19 -15 -25 -6 -3 5 1 10 9 10 9 0 16 -2 16 -4z m5 -76 c3 -6 -1 -7 -9
-4 -18 7 -21 14 -7 14 6 0 13 -4 16 -10z"/>
<path d="M1079 1903 l-24 -28 28 24 c25 23 32 31 24 31 -2 0 -14 -12 -28 -27z"/>
<path d="M1029 1863 c-13 -16 -12 -17 4 -4 9 7 17 15 17 17 0 8 -8 3 -21 -13z"/>
<path d="M1054 1833 c-16 -20 -44 -61 -62 -90 -18 -30 -59 -86 -93 -125 -33
-38 -58 -72 -56 -74 2 -2 -21 -29 -52 -60 -40 -40 -52 -57 -42 -63 9 -6 3 -12
-20 -20 -18 -6 -30 -14 -26 -17 3 -3 22 2 43 12 20 10 32 20 26 22 -7 2 -12 8
-12 14 0 5 6 8 12 6 13 -5 46 21 40 30 -2 3 2 9 10 13 10 7 10 9 -2 9 -16 1
15 16 62 30 19 6 30 5 34 -3 4 -7 4 -9 -1 -5 -4 4 -20 1 -35 -7 -15 -8 -30
-12 -32 -10 -3 3 -5 -2 -5 -10 0 -10 6 -13 18 -10 9 3 21 0 25 -6 4 -7 3 -9
-2 -6 -5 3 -21 -3 -34 -14 -21 -16 -22 -18 -5 -13 15 4 13 1 -5 -10 -16 -10
-19 -15 -10 -16 13 0 13 -1 0 -10 -13 -9 -13 -10 0 -10 8 -1 0 -7 -17 -15 -18
-8 -33 -16 -33 -19 0 -9 60 13 76 28 20 20 25 20 17 0 -3 -9 -20 -23 -37 -30
l-31 -15 43 7 c23 3 42 2 41 -3 -3 -18 2 -33 11 -33 6 0 10 7 10 15 0 11 8 13
33 9 31 -4 31 -4 7 7 -14 7 -29 11 -34 10 -5 -1 -4 5 4 13 7 9 18 16 24 16 6
0 4 -5 -4 -10 -11 -7 -6 -10 20 -10 l35 1 -24 19 -23 20 28 0 29 1 -25 14
c-19 11 -21 14 -7 15 18 0 19 20 2 32 -6 4 -1 8 10 8 20 1 20 1 1 15 -19 14
-19 15 -1 15 18 0 18 1 -1 15 -18 14 -18 14 6 15 l25 1 -27 24 c-27 23 -27 24
-5 28 l22 4 -22 2 c-13 0 -23 6 -23 12 0 5 6 7 13 3 10 -6 10 -4 0 7 -15 15
-17 59 -4 59 5 0 13 9 16 20 4 11 11 17 17 14 7 -4 8 -2 4 4 -3 6 0 17 7 24 8
7 12 20 9 30 -2 10 1 18 7 18 6 0 16 10 21 23 5 12 17 32 26 45 26 36 10 25
-22 -15z m-117 -215 c-3 -8 -6 -5 -6 6 -1 11 2 17 5 13 3 -3 4 -12 1 -19z
m-27 -63 c-14 -17 -30 -20 -30 -6 0 5 8 12 18 14 9 3 19 5 21 6 2 0 -2 -6 -9
-14z m0 -100 c0 -2 -10 -9 -22 -15 -22 -11 -22 -10 -4 4 21 17 26 19 26 11z
m50 -5 c13 -8 13 -10 -2 -10 -9 0 -20 5 -23 10 -8 13 5 13 25 0z"/>
<path d="M1102 1798 c2 -42 0 -74 -3 -72 -11 7 -18 -50 -8 -68 6 -11 5 -19 -1
-23 -8 -5 -7 -11 1 -21 7 -9 8 -19 2 -26 -5 -7 -10 -58 -12 -113 l-2 -99 20
18 c20 18 20 43 0 31 -17 -11 -9 37 9 53 10 10 11 13 3 7 -13 -8 -12 -5 2 17
21 33 22 45 3 29 -21 -17 -15 12 7 37 17 18 24 82 10 82 -5 0 -8 39 -8 88 0
51 -5 97 -13 112 -11 22 -13 16 -10 -52z"/>
<path d="M952 1814 c-23 -16 -30 -39 -9 -31 6 2 11 10 9 17 -2 7 3 10 11 7 8
-3 14 1 14 9 0 17 2 17 -25 -2z"/>
<path d="M752 1784 c-11 -22 -28 -46 -37 -54 -9 -7 -22 -28 -30 -45 -7 -18
-56 -76 -109 -129 -52 -53 -110 -117 -128 -143 -29 -44 -23 -39 80 51 61 54
109 103 106 107 -3 5 -1 8 4 7 17 -5 147 94 175 134 16 22 24 38 20 35 -15 -9
-30 6 -45 43 l-15 35 -21 -41z m1 -65 c-4 -14 -8 -17 -13 -9 -5 8 -12 5 -23
-11 -9 -12 -14 -26 -11 -31 3 -4 -2 -16 -12 -25 -16 -16 -16 -16 -9 7 10 35
56 101 65 95 5 -3 6 -14 3 -26z"/>
<path d="M1800 1779 l-25 -21 28 16 c27 16 27 16 39 -11 6 -15 12 -56 13 -90
1 -48 7 -69 26 -95 14 -18 34 -59 44 -90 11 -32 25 -58 32 -58 9 0 10 6 3 26
-12 31 -12 37 -1 30 4 -3 5 9 2 27 -4 17 -13 32 -21 32 -7 0 -15 7 -17 15 -4
13 -3 13 7 0 9 -13 11 -12 7 5 -5 21 -19 74 -22 88 -2 4 -3 11 -4 17 0 5 -8 7
-16 4 -10 -4 -15 0 -15 15 0 12 5 21 12 21 9 0 9 3 1 11 -13 13 -6 42 8 33 5
-3 9 -3 9 1 0 7 -62 45 -75 45 -5 0 -21 -10 -35 -21z"/>
<path d="M550 1749 c0 -7 -10 -24 -22 -38 -13 -14 -16 -20 -7 -13 13 10 18 10
21 0 7 -18 -2 -39 -13 -32 -5 3 -9 0 -9 -7 0 -6 -20 -52 -45 -100 -25 -49 -42
-89 -38 -89 5 0 0 -5 -9 -10 -9 -6 -27 -25 -39 -42 -13 -17 -17 -28 -10 -24 8
5 17 3 23 -5 7 -12 9 -11 7 1 -1 8 -1 22 1 30 1 11 3 10 9 -3 6 -15 16 -6 54
53 26 39 45 76 41 82 -4 7 -3 8 4 4 7 -4 12 -3 12 2 0 5 11 26 25 46 14 21 23
42 19 47 -3 5 0 8 8 7 7 -2 12 5 12 14 -1 10 2 15 7 12 5 -3 9 -1 9 4 0 6 10
12 23 15 12 4 31 13 42 22 16 13 13 12 -17 -2 -37 -16 -39 -16 -60 4 -33 29
-48 36 -48 22z"/>
<path d="M1706 1719 c-33 -22 -61 -41 -64 -43 -7 -7 22 -1 36 7 18 12 15 -3
-5 -27 -12 -14 -13 -17 -3 -10 8 6 28 18 44 28 22 14 26 20 15 27 -11 7 -8 14
16 34 43 35 29 29 -39 -16z"/>
<path d="M1910 1738 c0 -4 6 -13 13 -20 29 -31 47 -70 47 -103 0 -19 4 -35 10
-35 5 0 25 -33 44 -72 34 -72 81 -130 72 -90 -9 41 -19 61 -32 66 -10 4 -12
15 -7 38 6 30 5 32 -11 19 -14 -12 -16 -12 -10 2 3 8 -2 27 -11 41 -9 14 -14
30 -10 36 3 5 2 10 -3 10 -5 0 -12 9 -15 20 -6 25 10 26 37 3 16 -14 15 -11
-3 9 -20 23 -27 25 -44 16 -16 -8 -22 -8 -25 1 -5 16 -51 68 -52 59z m175
-298 c3 -5 1 -10 -4 -10 -6 0 -11 5 -11 10 0 6 2 10 4 10 3 0 8 -4 11 -10z"/>
<path d="M424 1663 c-20 -3 -44 -17 -65 -41 -19 -20 -24 -28 -11 -18 26 22 29
11 6 -22 -8 -12 -20 -20 -25 -17 -5 4 -9 -1 -9 -10 0 -9 -5 -13 -11 -10 -6 4
-8 14 -4 22 5 14 3 14 -11 2 -10 -8 -12 -15 -5 -17 6 -2 11 -10 11 -18 0 -9
-4 -12 -10 -9 -5 3 -10 1 -10 -5 0 -6 -5 -8 -10 -5 -6 3 -17 0 -24 -8 -16 -16
-48 -87 -39 -87 3 0 44 39 92 88 48 48 107 104 132 124 24 20 40 37 34 36 -5
-1 -24 -3 -41 -5z m-34 -33 c0 -5 -5 -10 -11 -10 -5 0 -7 5 -4 10 3 6 8 10 11
10 2 0 4 -4 4 -10z"/>
<path d="M455 1620 c-3 -6 1 -7 9 -4 18 7 21 14 7 14 -6 0 -13 -4 -16 -10z"/>
<path d="M2068 1603 c12 -17 22 -36 22 -43 0 -39 109 -186 118 -160 2 5 11 6
20 2 15 -5 16 -4 2 15 -59 82 -132 172 -155 193 l-29 25 22 -32z"/>
<path d="M1340 1516 c0 -9 60 -102 60 -94 0 12 -41 88 -51 94 -5 3 -9 3 -9 0z"/>
<path d="M1136 1368 c3 -5 10 -6 15 -3 13 9 11 12 -6 12 -8 0 -12 -4 -9 -9z"/>
<path d="M1790 1329 c0 -5 4 -9 9 -9 5 0 17 -3 27 -7 11 -4 15 -3 11 4 -9 14
-47 24 -47 12z"/>
<path d="M1491 1303 c-13 -10 -10 -11 18 -3 41 11 51 20 21 17 -12 -1 -30 -7
-39 -14z"/>
<path d="M1638 1293 c7 -3 16 -2 19 1 4 3 -2 6 -13 5 -11 0 -14 -3 -6 -6z"/>
<path d="M358 1173 c-16 -4 -18 -20 -18 -169 l0 -164 25 0 c22 0 25 5 25 33 0
34 36 104 48 93 3 -4 16 -33 28 -64 19 -51 24 -57 52 -60 l32 -3 -37 104 -37
103 36 59 c20 33 34 63 32 67 -3 5 -16 8 -29 8 -19 0 -33 -15 -67 -70 -24 -38
-46 -70 -50 -70 -5 0 -8 29 -8 64 0 68 -4 75 -32 69z m9 -280 c-2 -21 -4 -6
-4 32 0 39 2 55 4 38 2 -18 2 -50 0 -70z"/>
<path d="M663 1172 c-13 -2 -23 -6 -23 -9 0 -4 23 -48 50 -99 46 -84 50 -99
50 -158 l0 -66 30 0 30 0 0 61 c0 55 5 70 55 160 30 55 55 101 55 104 0 3 -16
5 -35 5 -32 0 -36 -4 -65 -62 -17 -35 -33 -64 -35 -66 -2 -3 -19 25 -37 62
-34 69 -39 74 -75 68z m119 -199 c-3 -16 -7 -22 -10 -15 -4 13 4 42 11 42 2 0
2 -12 -1 -27z"/>
<path d="M1525 1170 l-80 -5 0 -162 0 -163 113 0 c112 0 113 0 110 23 -3 20
-9 22 -86 25 l-83 3 3 57 3 57 68 3 c64 3 67 4 67 27 0 24 -2 25 -71 25 l-70
0 3 33 3 32 78 3 c67 2 77 5 77 21 0 23 -28 28 -135 21z m-43 -228 c2 -45 0
-82 -4 -82 -5 0 -7 55 -6 123 2 124 5 109 10 -41z"/>
<path d="M1788 1169 c-25 -14 -23 -50 2 -56 20 -5 20 -7 4 -31 -13 -20 -14
-26 -3 -33 10 -6 21 -1 37 17 28 32 30 89 3 104 -23 12 -22 12 -43 -1z"/>
<path d="M2013 1164 c-56 -28 -67 -117 -18 -150 12 -8 45 -21 73 -29 47 -14
52 -19 52 -44 0 -57 -89 -62 -110 -6 -12 32 -60 36 -60 5 0 -64 59 -106 136
-97 63 7 94 40 94 99 0 53 -20 74 -85 93 -74 22 -91 36 -76 63 16 30 61 29 90
-2 24 -25 61 -25 61 1 0 25 -31 61 -62 72 -41 14 -57 14 -95 -5z m112 -34 c26
-28 15 -31 -12 -3 -12 13 -19 23 -14 23 4 0 16 -9 26 -20z m16 -147 c13 -16
12 -17 -3 -4 -17 13 -22 21 -14 21 2 0 10 -8 17 -17z m16 -45 c-3 -8 -6 -5 -6
6 -1 11 2 17 5 13 3 -3 4 -12 1 -19z m-7 -31 c0 -2 -10 -12 -22 -23 l-23 -19
19 23 c18 21 26 27 26 19z m-62 -44 c-10 -2 -26 -2 -35 0 -10 3 -2 5 17 5 19
0 27 -2 18 -5z"/>
<path d="M1010 1011 c0 -115 3 -161 13 -168 6 -5 43 -7 80 -5 63 3 68 5 65 25
-3 19 -11 22 -50 25 l-48 3 0 140 0 139 -30 0 -30 0 0 -159z m45 -141 c3 -5 1
-10 -4 -10 -6 0 -11 5 -11 10 0 6 2 10 4 10 3 0 8 -4 11 -10z"/>
<path d="M1270 1005 l0 -165 30 0 30 0 0 165 0 165 -30 0 -30 0 0 -165z"/>
<path d="M218 764 c-5 -4 -8 -81 -8 -171 l0 -163 30 0 c29 0 30 2 30 45 l0 45
44 0 c91 0 151 79 124 163 -19 59 -53 79 -140 85 -40 2 -76 1 -80 -4z m146
-74 c47 -45 9 -120 -60 -120 l-34 0 0 68 c0 38 3 72 7 76 11 11 66 -4 87 -24z
m53 -52 c-3 -7 -5 -2 -5 12 0 14 2 19 5 13 2 -7 2 -19 0 -25z m-97 -92 c0 -2
-18 -6 -40 -8 -22 -2 -40 0 -40 4 0 5 18 8 40 8 22 0 40 -2 40 -4z"/>
<path d="M568 763 c-16 -4 -18 -21 -18 -169 l0 -164 30 0 29 0 3 83 3 82 75 0
75 0 3 -82 c3 -81 3 -83 28 -83 13 0 27 7 30 15 4 9 2 84 -2 168 -8 142 -10
152 -29 152 -17 0 -21 -8 -25 -55 l-5 -55 -77 -3 -77 -3 -3 57 c-3 58 -8 65
-40 57z m85 -135 l62 -3 -68 -5 -67 -5 2 65 2 65 3 -57 4 -57 62 -3z m147 7
c0 -11 -10 -15 -37 -13 -37 1 -37 1 -5 5 17 2 32 8 32 14 0 5 2 9 5 9 3 0 5
-7 5 -15z m-213 -87 c-3 -8 -6 -5 -6 6 -1 11 2 17 5 13 3 -3 4 -12 1 -19z"/>
<path d="M1068 760 c-53 -16 -97 -51 -117 -94 -27 -54 -26 -91 2 -146 32 -64
75 -90 149 -90 72 0 123 22 149 64 58 95 24 212 -76 257 -43 20 -65 22 -107 9z
m59 -26 c-3 -3 -12 -4 -19 -1 -8 3 -5 6 6 6 11 1 17 -2 13 -5z m34 -40 c31
-15 59 -66 59 -104 0 -37 -30 -81 -66 -96 -74 -31 -164 22 -164 96 0 54 65
120 118 120 13 0 37 -7 53 -16z m-194 -86 c-3 -8 -6 -5 -6 6 -1 11 2 17 5 13
3 -3 4 -12 1 -19z m66 -137 c-2 -3 -16 8 -31 24 l-27 28 31 -24 c17 -13 30
-26 27 -28z m134 -7 c-3 -3 -12 -4 -19 -1 -8 3 -5 6 6 6 11 1 17 -2 13 -5z
m-44 -11 c-7 -2 -21 -2 -30 0 -10 3 -4 5 12 5 17 0 24 -2 18 -5z"/>
<path d="M1357 764 c-4 -4 -7 -18 -7 -31 0 -20 5 -23 39 -23 26 0 41 -5 45
-16 3 -9 6 -72 6 -140 l0 -125 28 3 27 3 3 137 3 137 37 3 c32 3 37 6 37 28 0
25 0 25 -106 28 -58 1 -108 -1 -112 -4z m115 -66 c-5 -71 -10 -77 -11 -15 0
31 2 57 7 57 4 0 6 -19 4 -42z m-5 -145 c-2 -16 -4 -5 -4 22 0 28 2 40 4 28 2
-13 2 -35 0 -50z m0 -85 c-2 -13 -4 -5 -4 17 -1 22 1 32 4 23 2 -10 2 -28 0
-40z"/>
<path d="M1777 760 c-41 -12 -94 -56 -113 -92 -23 -45 -15 -134 15 -177 31
-43 76 -61 148 -61 68 0 112 23 144 72 16 26 19 46 17 98 -4 83 -35 128 -105
153 -52 19 -64 19 -106 7z m66 -27 c-7 -2 -19 -2 -25 0 -7 3 -2 5 12 5 14 0
19 -2 13 -5z m60 -63 c32 -36 37 -101 11 -139 -60 -85 -204 -42 -204 61 0 34
6 47 40 80 37 38 43 40 83 35 30 -4 50 -15 70 -37z m64 -97 c-3 -10 -5 -2 -5
17 0 19 2 27 5 18 2 -10 2 -26 0 -35z m-134 -120 c-7 -2 -21 -2 -30 0 -10 3
-4 5 12 5 17 0 24 -2 18 -5z"/>
<path d="M2148 754 c-37 -20 -56 -80 -37 -120 11 -23 29 -34 81 -52 37 -13 69
-30 72 -37 9 -25 -23 -55 -59 -55 -28 0 -37 6 -50 30 -11 21 -23 30 -40 30
-15 0 -25 -6 -25 -14 0 -80 102 -131 180 -91 37 19 50 43 50 93 0 49 -18 66
-98 93 -68 23 -84 45 -52 71 16 13 27 15 50 7 15 -6 31 -17 34 -25 8 -20 56
-18 56 2 0 64 -95 105 -162 68z m149 -226 c-3 -8 -6 -5 -6 6 -1 11 2 17 5 13
3 -3 4 -12 1 -19z m-7 -31 c0 -2 -10 -12 -22 -23 l-23 -19 19 23 c18 21 26 27
26 19z m-57 -44 c-7 -2 -21 -2 -30 0 -10 3 -4 5 12 5 17 0 24 -2 18 -5z"/>
</g>
</svg>
